#!OML:ASF E:\emotionWalksFemale\Project 1\Capture day 1\Session 1\Female1.ASF
:FULLY-SPECIFIED
:DEGREES
236
root 8.46919 15.1515 41.8886 182.682 -8.33031 -177.4
lowerback 6.09548 2.77746 1.64195
upperback -4.84906 3.81159 0.387154
thorax -8.44814 1.7286 -1.00757
lowerneck -7.77005 -5.73803 -8.97059
upperneck 18.2807 -8.38675 5.90417
head 7.51328 -4.39321 2.6086
rclavicle -2.04375e-014 -1.78906e-015
rhumerus -36.0507 23.7016 -95.7272
rradius 26.1973
rwrist 35.2215
rhand -9.31789 -48.4473
rfingers 7.12502
rthumb -163.36 462.246
lclavicle -2.04375e-014 -1.78906e-015
lhumerus -50.1658 -5.25474 85.4977
lradius 33.6792
lwrist -17.751
lhand -3.32056 -29.4525
lfingers 7.12502
lthumb 22.4063 -0.732065
rfemur -5.53 23.9042 28.9862
rtibia 24.2808
rfoot -31.3577 -40.7103
rtoes 22.1835
lfemur -14.4813 -24.4245 -20.7622
ltibia 33.4178
lfoot -29.5419 15.2013
ltoes -24.8947
237
root 8.44933 15.1474 41.8702 182.58 -7.95541 -177.585
lowerback 6.29399 2.88535 1.42993
upperback -4.8316 3.94335 0.389454
thorax -8.55713 1.8053 -0.915456
lowerneck -7.60806 -5.80008 -8.9708
upperneck 18.1468 -8.4735 5.87987
head 7.44675 -4.43872 2.59728
rclavicle 1.31757e-014 3.08116e-015
rhumerus -34.2566 22.4427 -94.2521
rradius 27.4528
rwrist 29.5415
rhand -4.7564 -50.3142
rfingers 7.12502
rthumb -158.973 460.806
lclavicle 1.31757e-014 3.08116e-015
lhumerus -51.0125 -5.75476 85.9254
lradius 33.6571
lwrist -17.7971
lhand -3.80161 -29.0204
lfingers 7.12502
lthumb 21.9445 -0.245038
rfemur -5.1975 24.2662 28.8166
rtibia 24.1779
rfoot -31.3833 -40.7865
rtoes 21.4572
lfemur -14.1421 -24.3617 -21.2042
ltibia 33.5051
lfoot -29.9281 15.2921
ltoes -25.0423
238
root 8.4289 15.1466 41.8607 182.638 -7.72809 -177.402
lowerback 6.31408 2.97617 1.6949
upperback -4.78685 4.09483 0.405397
thorax -8.50002 1.86571 -1.06554
lowerneck -7.63524 -5.91265 -8.86396
upperneck 17.9578 -8.6143 5.8805
head 7.39661 -4.49069 2.56648
rclavicle 2.89604e-014 1.19271e-015
rhumerus -33.1239 22.4413 -93.5148
rradius 28.2219
rwrist 27.6056
rhand -3.23343 -50.6396
rfingers 7.12502
rthumb -157.51 460.65
lclavicle 2.89604e-014 1.19271e-015
lhumerus -51.5642 -6.27198 86.2421
lradius 33.5343
lwrist -17.9279
lhand -2.57531 -28.7158
lfingers 7.12502
lthumb 23.1215 -0.083272
rfemur -5.25004 24.2493 28.8827
rtibia 24.1724
rfoot -31.1127 -40.6178
rtoes 20.5232
lfemur -14.1648 -24.1154 -21.0828
ltibia 33.5269
lfoot -29.8409 15.4691
ltoes -26.0384
239
root 8.39474 15.1434 41.8531 182.691 -7.65023 -177.13
lowerback 6.35249 2.95448 2.29079
upperback -4.7316 4.12897 0.432336
thorax -8.42249 1.84983 -1.37266
lowerneck -7.81088 -5.97343 -8.72174
upperneck 17.8763 -8.64758 5.70959
head 7.3904 -4.49997 2.48
rclavicle 7.79174e-014 2.18663e-014
rhumerus -32.0925 22.8217 -92.9634
rradius 28.749
rwrist 26.0588
rhand -3.0685 -49.8068
rfingers 7.12502
rthumb -157.352 461.502
lclavicle 7.79174e-014 2.18663e-014
lhumerus -52.0775 -6.43098 86.4166
lradius 33.0996
lwrist -18.9087
lhand -1.86209 -29.1467
lfingers 7.12502
lthumb 23.8057 -0.601551
rfemur -5.41911 23.7411 28.9389
rtibia 24.3159
rfoot -30.6595 -40.2761
rtoes 18.7646
lfemur -14.191 -24.1126 -20.9205
ltibia 33.469
lfoot -29.8197 15.7048
ltoes -26.9573
240
root 8.36918 15.1471 41.8346 183.043 -7.30853 -177.454
lowerback 6.13505 3.01203 1.99512
upperback -4.77936 4.16313 0.378121
thorax -8.36188 1.88188 -1.25839
lowerneck -7.81149 -5.99188 -8.56158
upperneck 17.6907 -8.62003 5.46063
head 7.31025 -4.48928 2.37806
rclavicle 2.32516e-014 -2.5345e-015
rhumerus -31.0839 22.8282 -92.2603
rradius 29.501
rwrist 24.3795
rhand -2.3584 -49.2316
rfingers 7.12502
rthumb -156.67 462.162
lclavicle 2.32516e-014 -2.5345e-015
lhumerus -52.7494 -6.44658 86.5426
lradius 33.0938
lwrist -18.6076
lhand -0.105721 -28.6954
lfingers 7.12502
lthumb 25.4891 -0.380104
rfemur -5.81453 23.5143 28.2999
rtibia 24.4859
rfoot -30.4435 -39.8812
rtoes 17.3478
lfemur -14.3108 -24.091 -21.3147
ltibia 33.3745
lfoot -30.1976 15.4163
ltoes -25.6082
241
root 8.34505 15.1451 41.8171 183.195 -6.98618 -177.692
lowerback 6.17315 3.04351 1.77089
upperback -4.84863 4.18012 0.343557
thorax -8.47197 1.89864 -1.17711
lowerneck -7.46731 -5.95016 -8.5324
upperneck 17.2721 -8.56091 5.48517
head 7.10879 -4.45728 2.40209
rclavicle 2.0596e-014 4.62174e-015
rhumerus -30.3057 23.011 -91.7095
rradius 30.6155
rwrist 22.1944
rhand -1.39838 -48.8453
rfingers 7.12502
rthumb -155.75 462.668
lclavicle 2.0596e-014 4.62174e-015
lhumerus -53.8177 -6.64741 86.7633
lradius 32.8731
lwrist -19.4851
lhand -0.967579 -28.9888
lfingers 7.12502
lthumb 24.6633 -0.558103
rfemur -6.03997 23.45 27.8675
rtibia 24.7458
rfoot -30.6382 -39.5073
rtoes 16.4217
lfemur -14.2048 -24.1263 -21.6686
ltibia 33.2253
lfoot -30.2939 16.0582
ltoes -24.873
242
root 8.31971 15.1428 41.8032 183.275 -6.67086 -177.808
lowerback 6.37205 3.08203 1.73824
upperback -4.92517 4.23088 0.314338
thorax -8.67073 1.91908 -1.21115
lowerneck -7.32434 -5.93153 -8.55997
upperneck 17.1133 -8.54489 5.56028
head 7.03539 -4.44663 2.43827
rclavicle -3.81263e-014 -9.69075e-015
rhumerus -29.5625 23.4091 -91.2217
rradius 31.9999
rwrist 19.5268
rhand -0.440857 -48.7148
rfingers 7.12502
rthumb -154.832 462.924
lclavicle -3.81263e-014 -9.69075e-015
lhumerus -54.8089 -6.98287 87.0684
lradius 32.6024
lwrist -19.9074
lhand -0.284295 -29.4181
lfingers 7.12502
lthumb 25.318 -1.07853
rfemur -6.28143 23.0202 27.5344
rtibia 25.0912
rfoot -30.672 -38.8985
rtoes 15.3318
lfemur -14.0223 -24.0067 -21.911
ltibia 32.9808
lfoot -30.2527 16.3685
ltoes -24.5716
243
root 8.29283 15.1454 41.7904 183.448 -6.28358 -177.848
lowerback 6.43735 3.16142 1.84688
upperback -4.95556 4.34561 0.255574
thorax -8.72634 1.96459 -1.35363
lowerneck -7.4162 -6.0098 -8.32953
upperneck 17.0314 -8.62721 5.3728
head 7.01302 -4.47993 2.3308
rclavicle 7.15314e-015 -9.19379e-015
rhumerus -28.5894 23.6851 -90.6208
rradius 33.4907
rwrist 16.7927
rhand 0.648769 -49.5018
rfingers 7.12502
rthumb -153.788 462.288
lclavicle 7.15314e-015 -9.19379e-015
lhumerus -55.4718 -7.29662 87.3653
lradius 32.2069
lwrist -20.2928
lhand 0.450341 -29.7683
lfingers 7.12502
lthumb 26.0217 -1.53026
rfemur -6.69167 22.0925 27.1615
rtibia 25.418
rfoot -30.0534 -38.0571
rtoes 13.3753
lfemur -13.9712 -23.5357 -22.0381
ltibia 32.7582
lfoot -29.9935 16.5887
ltoes -24.9322
244
root 8.26261 15.153 41.7753 183.792 -5.82585 -177.788
lowerback 6.25707 3.25725 2.105
upperback -5.01341 4.48558 0.182733
thorax -8.65334 2.01339 -1.58175
lowerneck -7.10571 -6.06006 -8.10013
upperneck 16.5364 -8.68917 5.29772
head 6.79013 -4.49784 2.27925
rclavicle 9.53856e-015 -5.1684e-015
rhumerus -27.5868 23.6598 -90.0163
rradius 34.9077
rwrist 14.5517
rhand 1.48165 -50.1029
rfingers 7.12502
rthumb -152.991 461.808
lclavicle 9.53856e-015 -5.1684e-015
lhumerus -56.1073 -7.27809 87.3872
lradius 31.7285
lwrist -21.2756
lhand 0.655955 -29.9371
lfingers 7.12502
lthumb 26.2185 -1.72812
rfemur -7.38666 20.7513 26.7639
rtibia 25.7997
rfoot -29.1782 -36.8944
rtoes 10.6124
lfemur -14.1264 -23.1308 -21.9969
ltibia 32.5398
lfoot -29.5234 17.2542
ltoes -25.544
